<svg width="300" height="296" viewBox="0 0 300 296" fill="none" xmlns="http://www.w3.org/2000/svg">
<path d="M62.069 116.511C62.069 99.1198 48.1744 85.0212 31.0345 85.0212C13.8946 85.0212 0 99.1198 0 116.511V263.461C0 280.852 13.8946 294.95 31.0345 294.95C48.1744 294.95 62.069 280.852 62.069 263.461V116.511Z" fill="#319795"/>
<path d="M300 116.511C300 99.1198 286.104 85.0212 268.965 85.0212C251.827 85.0212 237.931 99.1198 237.931 116.511V263.461C237.931 280.852 251.827 294.95 268.965 294.95C286.104 294.95 300 280.852 300 263.461V116.511Z" fill="#319795"/>
<path d="M31.0345 62.9787C48.1744 62.9787 62.069 48.8805 62.069 31.4893C62.069 14.0983 48.1744 0 31.0345 0C13.8946 0 0 14.0983 0 31.4893C0 48.8805 13.8946 62.9787 31.0345 62.9787Z" fill="#319795"/>
<path d="M268.965 62.9787C286.104 62.9787 300 48.8805 300 31.4893C300 14.0983 286.104 0 268.965 0C251.827 0 237.931 14.0983 237.931 31.4893C237.931 48.8805 251.827 62.9787 268.965 62.9787Z" fill="#319795"/>
<mask id="mask0_1018_1541" style="mask-type:alpha" maskUnits="userSpaceOnUse" x="2" y="83" width="296" height="154">
<path d="M269.303 83.9715C286.256 83.9715 300.317 98.0597 296.87 114.903C290.971 143.739 276.9 170.454 256.066 191.592C227.936 220.136 189.782 236.17 150 236.17C110.218 236.17 72.0646 220.136 43.9341 191.592C23.1008 170.454 9.02876 143.739 3.12976 114.903C-0.315978 98.0597 13.7435 83.9715 30.697 83.9715C47.6506 83.9715 60.9017 98.3203 66.6588 114.5C71.0377 126.807 78.0532 138.115 87.3462 147.545C103.963 164.404 126.501 173.876 150 173.876C173.499 173.876 196.037 164.404 212.655 147.545C221.946 138.115 228.962 126.807 233.342 114.5C239.098 98.3203 252.349 83.9715 269.303 83.9715Z" fill="white"/>
</mask>
<g mask="url(#mask0_1018_1541)">
<path d="M269.303 83.9715C286.256 83.9715 300.317 98.0597 296.87 114.903C290.971 143.739 276.9 170.454 256.066 191.592C227.936 220.136 189.782 236.17 150 236.17C110.218 236.17 72.0646 220.136 43.9341 191.592C23.1008 170.454 9.02876 143.739 3.12976 114.903C-0.315978 98.0597 13.7435 83.9715 30.697 83.9715C47.6506 83.9715 60.9017 98.3203 66.6588 114.5C71.0377 126.807 78.0532 138.115 87.3462 147.545C103.963 164.404 126.501 173.876 150 173.876C173.499 173.876 196.037 164.404 212.655 147.545C221.946 138.115 228.962 126.807 233.342 114.5C239.098 98.3203 252.349 83.9715 269.303 83.9715Z" fill="#319795" stroke="#319795" stroke-width="60"/>
</g>
</svg>
